# xmcd
#
# Track frame offsets:
#	150
#	1851
#	28622
#	40781
#	56216
#	85228
#	105124
#	126688
#	150765
#	180692
#	197811
#	227034
#
# Disc length: 3285 seconds
#
# Revision: 0
# Processed by: cddbd v1.5.2PL0 Copyright (c) Steve Scherf et al.
# Submitted via: audiograbber 1.83.01
#
DISCID=8d0cd30c
DTITLE=David Bowie - 2002-08-05 Toronto - These Shades Work For Those Rays
DYEAR=2002
DGENRE=Rock
TTITLE0=Radio Intro
TTITLE1=Ashes To Ashes
TTITLE2=Breaking Glass
TTITLE3=Cactus
TTITLE4=Slip Away
TTITLE5=China Girl
TTITLE6=I've Been Waiting For You
TTITLE7=5:15 The Angels Have Gone
TTITLE8=Heathen (The Rays)
TTITLE9=Fashion
TTITLE10=Lets Dance
TTITLE11=Ziggy Stardust
EXTD=FM Broadcast
EXTT0=
EXTT1=
EXTT2=
EXTT3=
EXTT4=
EXTT5=
EXTT6=
EXTT7=
EXTT8=
EXTT9=
EXTT10=
EXTT11=
PLAYORDER=
